<?xml version="1.0" encoding="UTF-8" standalone="no"?>
<!-- Created with Inkscape (http://www.inkscape.org/) -->

<svg
   width="11in"
   height="8.5in"
   viewBox="0 0 279.4 215.9"
   version="1.1"
   id="svg5"
   xml:space="preserve"
   inkscape:version="1.2.1 (9c6d41e, 2022-07-14)"
   sodipodi:docname="flashcard-template-2.svg"
   xmlns:inkscape="http://www.inkscape.org/namespaces/inkscape"
   xmlns:sodipodi="http://sodipodi.sourceforge.net/DTD/sodipodi-0.dtd"
   xmlns="http://www.w3.org/2000/svg"
   xmlns:svg="http://www.w3.org/2000/svg"><sodipodi:namedview
     id="namedview7"
     pagecolor="#ffffff"
     bordercolor="#666666"
     borderopacity="1.0"
     inkscape:showpageshadow="2"
     inkscape:pageopacity="0.0"
     inkscape:pagecheckerboard="0"
     inkscape:deskcolor="#d1d1d1"
     inkscape:document-units="mm"
     showgrid="false"
     inkscape:zoom="1"
     inkscape:cx="448.5"
     inkscape:cy="357"
     inkscape:window-width="1680"
     inkscape:window-height="1022"
     inkscape:window-x="0"
     inkscape:window-y="0"
     inkscape:window-maximized="0"
     inkscape:current-layer="layer1" /><defs
     id="defs2" /><g
     inkscape:label="Layer 1"
     inkscape:groupmode="layer"
     id="layer1"><g
       transform="matrix(0.238125,0,0,-0.238125,69.770627,136.4456)"
       fill="none"
       stroke-width="2"
       id="g7983"
       style="opacity:0.1"><path
         stroke="#808080"
         d="M -220,0 H 274 M 0,-220 v 386"
         id="path7979" /><path
         stroke="#ff0000"
         d="M 3.108,0 C 3.178,0.407 3.171,0.842 3.074,1.273 2.977,1.704 2.791,2.132 2.519,2.519 2.247,2.906 1.887,3.253 1.46,3.524 1.033,3.795 0.534,3.991 0,4.084 -0.534,4.177 -1.107,4.167 -1.673,4.04 -2.239,3.913 -2.802,3.668 -3.311,3.311 -3.82,2.954 -4.275,2.48 -4.631,1.918 -4.987,1.356 -5.245,0.702 -5.367,0 c -0.122,-0.702 -0.109,-1.455 0.058,-2.199 0.167,-0.744 0.488,-1.484 0.958,-2.152 0.47,-0.668 1.091,-1.267 1.83,-1.736 0.739,-0.469 1.599,-0.806 2.521,-0.967 0.922,-0.161 1.912,-0.143 2.89,0.076 0.978,0.219 1.95,0.642 2.828,1.26 0.878,0.618 1.666,1.434 2.281,2.405 C 8.614,-2.342 9.059,-1.212 9.27,0 9.481,1.212 9.458,2.513 9.17,3.798 8.882,5.083 8.327,6.361 7.515,7.515 6.703,8.669 5.63,9.704 4.355,10.513 3.08,11.322 1.593,11.906 0,12.183 -1.593,12.46 -3.302,12.43 -4.992,12.052 -6.682,11.674 -8.36,10.943 -9.876,9.876 -11.392,8.809 -12.753,7.399 -13.816,5.723 -14.879,4.047 -15.647,2.094 -16.012,0 c -0.365,-2.094 -0.324,-4.34 0.173,-6.561 0.497,-2.221 1.457,-4.426 2.86,-6.418 1.403,-1.992 3.255,-3.782 5.458,-5.178 2.203,-1.396 4.769,-2.407 7.521,-2.886 2.752,-0.479 5.704,-0.427 8.622,0.227 2.918,0.654 5.817,1.915 8.436,3.758 2.619,1.843 4.969,4.278 6.805,7.174 1.836,2.896 3.163,6.267 3.792,9.884 0.629,3.617 0.561,7.496 -0.299,11.331 -0.86,3.835 -2.516,7.645 -4.938,11.087 -2.422,3.442 -5.622,6.531 -9.428,8.943 -3.806,2.412 -8.237,4.157 -12.99,4.984 -4.753,0.827 -9.851,0.737 -14.892,-0.393 -5.041,-1.13 -10.047,-3.307 -14.57,-6.49 -4.523,-3.183 -8.583,-7.388 -11.753,-12.39 -3.17,-5.002 -5.464,-10.825 -6.55,-17.072 -1.086,-6.247 -0.969,-12.947 0.516,-19.571 1.485,-6.624 4.347,-13.204 8.529,-19.149 4.182,-5.945 9.71,-11.28 16.284,-15.446 6.574,-4.166 14.227,-7.18 22.436,-8.608 8.209,-1.428 17.015,-1.273 25.721,0.678 8.706,1.951 17.353,5.713 25.165,11.21 7.812,5.497 14.825,12.761 20.3,21.4 5.475,8.639 9.436,18.697 11.313,29.486 1.877,10.789 1.673,22.362 -0.891,33.803 C 79.044,45.244 74.1,56.609 66.876,66.876 59.652,77.143 50.105,86.359 38.752,93.555 27.399,100.751 14.179,105.956 0,108.422 c -14.179,2.466 -29.388,2.199 -44.425,-1.171 -15.037,-3.37 -29.971,-9.867 -43.465,-19.361 -13.494,-9.494 -25.605,-22.041 -35.062,-36.962 -9.457,-14.921 -16.297,-32.294 -19.539,-50.928 -3.242,-18.634 -2.889,-38.623 1.54,-58.384 4.429,-19.761 12.967,-39.389 25.444,-57.123 12.477,-17.734 28.967,-33.65 48.576,-46.079 19.609,-12.429 42.441,-21.419 66.931,-25.679 24.49,-4.26 50.759,-3.797 76.73,2.023 25.971,5.82 51.766,17.042 75.071,33.441 23.305,16.399 44.225,38.068 60.559,63.839 16.334,25.771 28.149,55.777 33.747,87.962"
         id="path7981" /></g><g
       transform="matrix(0.31246762,0,0,0.31246762,13.394014,46.102459)"
       stroke-width="23.4"
       stroke-linejoin="round"
       stroke="#000000"
       fill="none"
       id="g1230"
       style="opacity:0.1"><path
         id="use1220"
         d="M 381.604,19.493 C 376.666,18.17 371.575,17.5 366.463,17.5 c -15.515,0 -30.395,6.164 -41.366,17.134 l -82.731,82.732 C 231.395,128.336 216.515,134.5 201,134.5 c -15.515,0 -30.395,-6.164 -41.366,-17.134 L 76.903,34.634 C 65.932,23.664 51.052,17.5 35.537,17.5 c -5.112,0 -10.203,0.67 -15.141,1.993 -1.323,4.938 -1.993,10.029 -1.993,15.141 0,15.515 6.163,30.395 17.134,41.366 l 41.366,41.366 c 10.9705,10.97 25.851,17.134 41.366,17.134 15.515,0 30.395,-6.164 41.365,-17.134 l 82.732,-82.732 c 10.97,-10.97 25.85,-17.134 41.365,-17.134 15.515,0 30.395,6.164 41.366,17.134 L 366.463,76 c 10.971,10.971 17.134,25.851 17.134,41.366 0,5.112 -0.67,10.203 -1.993,15.141 -4.938,1.323 -10.029,1.993 -15.141,1.993 -15.515,0 -30.395,-6.164 -41.366,-17.134 L 242.366,34.634 C 231.395,23.664 216.515,17.5 201,17.5 c -15.515,0 -30.395,6.164 -41.366,17.134 L 76.903,117.366 C 65.932,128.336 51.052,134.5 35.537,134.5 c -5.112,0 -10.203,-0.67 -15.141,-1.993 -1.323,-4.938 -1.993,-10.029 -1.993,-15.141 0,-15.515 6.163,-30.395 17.134,-41.366 L 76.903,34.634 C 87.8735,23.664 102.754,17.5 118.269,17.5 c 15.515,0 30.395,6.164 41.365,17.134 l 82.732,82.732 c 10.97,10.97 25.85,17.134 41.365,17.134 15.515,0 30.395,-6.164 41.366,-17.134 L 366.463,76 c 10.971,-10.971 17.134,-25.851 17.134,-41.366 0,-5.112 -0.67,-10.203 -1.993,-15.141 z"
         style="stroke:#ffffff;stroke-width:32.76" /><path
         id="use1222"
         d="M 381.604,19.493 C 376.666,18.17 371.575,17.5 366.463,17.5 c -15.515,0 -30.395,6.164 -41.366,17.134 l -82.731,82.732 C 231.395,128.336 216.515,134.5 201,134.5 c -15.515,0 -30.395,-6.164 -41.366,-17.134 L 76.903,34.634 C 65.932,23.664 51.052,17.5 35.537,17.5 c -5.112,0 -10.203,0.67 -15.141,1.993 -1.323,4.938 -1.993,10.029 -1.993,15.141 0,15.515 6.163,30.395 17.134,41.366 l 41.366,41.366 c 10.9705,10.97 25.851,17.134 41.366,17.134 15.515,0 30.395,-6.164 41.365,-17.134 l 82.732,-82.732 c 10.97,-10.97 25.85,-17.134 41.365,-17.134 15.515,0 30.395,6.164 41.366,17.134 L 366.463,76 c 10.971,10.971 17.134,25.851 17.134,41.366 0,5.112 -0.67,10.203 -1.993,15.141 -4.938,1.323 -10.029,1.993 -15.141,1.993 -15.515,0 -30.395,-6.164 -41.366,-17.134 L 242.366,34.634 C 231.395,23.664 216.515,17.5 201,17.5 c -15.515,0 -30.395,6.164 -41.366,17.134 L 76.903,117.366 C 65.932,128.336 51.052,134.5 35.537,134.5 c -5.112,0 -10.203,-0.67 -15.141,-1.993 -1.323,-4.938 -1.993,-10.029 -1.993,-15.141 0,-15.515 6.163,-30.395 17.134,-41.366 L 76.903,34.634 C 87.8735,23.664 102.754,17.5 118.269,17.5 c 15.515,0 30.395,6.164 41.365,17.134 l 82.732,82.732 c 10.97,10.97 25.85,17.134 41.365,17.134 15.515,0 30.395,-6.164 41.366,-17.134 L 366.463,76 c 10.971,-10.971 17.134,-25.851 17.134,-41.366 0,-5.112 -0.67,-10.203 -1.993,-15.141 z" /><path
         id="use1224"
         d="M 381.604,19.493 C 376.666,18.17 371.575,17.5 366.463,17.5 c -15.515,0 -30.395,6.164 -41.366,17.134 l -82.731,82.732 C 231.395,128.336 216.515,134.5 201,134.5 c -15.515,0 -30.395,-6.164 -41.366,-17.134 L 76.903,34.634 C 65.932,23.664 51.052,17.5 35.537,17.5 c -5.112,0 -10.203,0.67 -15.141,1.993 -1.323,4.938 -1.993,10.029 -1.993,15.141 0,15.515 6.163,30.395 17.134,41.366 l 41.366,41.366 c 10.9705,10.97 25.851,17.134 41.366,17.134 15.515,0 30.395,-6.164 41.365,-17.134 l 82.732,-82.732 c 10.97,-10.97 25.85,-17.134 41.365,-17.134 15.515,0 30.395,6.164 41.366,17.134 L 366.463,76 c 10.971,10.971 17.134,25.851 17.134,41.366 0,5.112 -0.67,10.203 -1.993,15.141 -4.938,1.323 -10.029,1.993 -15.141,1.993 -15.515,0 -30.395,-6.164 -41.366,-17.134 L 242.366,34.634 C 231.395,23.664 216.515,17.5 201,17.5 c -15.515,0 -30.395,6.164 -41.366,17.134 L 76.903,117.366 C 65.932,128.336 51.052,134.5 35.537,134.5 c -5.112,0 -10.203,-0.67 -15.141,-1.993 -1.323,-4.938 -1.993,-10.029 -1.993,-15.141 0,-15.515 6.163,-30.395 17.134,-41.366 L 76.903,34.634 C 87.8735,23.664 102.754,17.5 118.269,17.5 c 15.515,0 30.395,6.164 41.365,17.134 l 82.732,82.732 c 10.97,10.97 25.85,17.134 41.365,17.134 15.515,0 30.395,-6.164 41.366,-17.134 L 366.463,76 c 10.971,-10.971 17.134,-25.851 17.134,-41.366 0,-5.112 -0.67,-10.203 -1.993,-15.141 z"
         style="stroke:#ffffff;stroke-width:14.04" /><path
         d="m 199.979,134.491 c -15.159,-0.265 -29.624,-6.405 -40.345,-17.125 l -17.55,-17.55 m 50.141,-15.041 17.55,-17.55 m -7.754,-49.716 c 15.159,0.265 29.624,6.405 40.345,17.125 l 17.55,17.55 m -142.668,82.307 c -15.16,-0.265 -29.6245,-6.405 -40.345,-17.125 l -17.55,-17.55 m 50.141,-15.041 17.549,-17.55 M 119.29,17.509 c 15.159,0.265 29.624,6.405 40.344,17.125 l 17.55,17.55 m 105.526,82.307 c -15.159,-0.265 -29.624,-6.405 -40.344,-17.125 l -17.55,-17.55 m 50.14,-15.041 17.55,-17.55 m -7.754,-49.716 c 15.16,0.265 29.624,6.405 40.345,17.125 l 17.55,17.55 M 36.558,17.509 c 15.159,0.265 29.624,6.405 40.345,17.125 l 17.55,17.55 m 270.989,82.307 c -15.159,-0.265 -29.624,-6.405 -40.345,-17.125 l -17.55,-17.55 M 20.669,101.241 C 23.404,91.702 28.521,83.016 35.537,76 L 53.087,58.45 M 381.331,50.759 C 378.596,60.298 373.479,68.984 366.463,76 l -17.55,17.55"
         id="path1226" /><path
         stroke-width="14.04"
         stroke="#ffffff"
         d="m 201,134.5 c -15.515,0 -30.395,-6.164 -41.366,-17.134 L 141.5,99.231 M 191.64,85.36 210.36,66.64 M 201,17.5 c 15.515,0 30.395,6.164 41.366,17.134 L 260.5,52.769 M 118.269,134.5 c -15.515,0 -30.3955,-6.164 -41.366,-17.134 L 58.768,99.231 m 50.141,-13.871 18.72,-18.72 m -9.36,-49.14 c 15.515,0 30.395,6.164 41.365,17.134 l 18.135,18.135 M 283.731,134.5 c -15.515,0 -30.395,-6.164 -41.365,-17.134 L 224.231,99.231 m 50.14,-13.871 18.72,-18.72 m -9.36,-49.14 c 15.515,0 30.395,6.164 41.366,17.134 l 18.135,18.135 M 35.537,17.5 c 15.515,0 30.395,6.164 41.366,17.134 L 95.038,52.769 M 366.463,134.5 c -15.515,0 -30.395,-6.164 -41.366,-17.134 L 306.962,99.231 M 20.396,102.225 C 23.054,92.306 28.276,83.261 35.537,76 L 53.672,57.865 m 327.932,-8.09 c -2.658,9.919 -7.88,18.964 -15.141,26.225 l -18.135,18.135"
         id="path1228" /></g><rect
       style="fill:none;stroke:#000000;stroke-width:0.734128;stroke-linecap:round;stroke-linejoin:round;stroke-opacity:1"
       id="rect900"
       width="126.26587"
       height="75.465874"
       x="13.067067"
       y="108.31706" /><rect
       style="fill:none;stroke:#000000;stroke-width:0.734128;stroke-linecap:round;stroke-linejoin:round;stroke-opacity:1"
       id="rect111"
       width="126.26587"
       height="75.465874"
       x="13.067071"
       y="32.117062" /><rect
       style="fill:none;stroke:#000000;stroke-width:0.734128;stroke-linecap:round;stroke-linejoin:round;stroke-opacity:1"
       id="rect898"
       width="126.26587"
       height="75.465874"
       x="140.06706"
       y="32.117062" /><rect
       style="fill:none;stroke:#000000;stroke-width:0.734128;stroke-linecap:round;stroke-linejoin:round;stroke-opacity:1"
       id="rect902"
       width="126.26587"
       height="75.465874"
       x="140.06706"
       y="108.31706" /><text
       xml:space="preserve"
       style="font-size:31.75px;line-height:1.25;font-family:'IBM Plex Sans Condensed';-inkscape-font-specification:'IBM Plex Sans Condensed, ';stroke-width:0.264583"
       x="46.259811"
       y="79.74012"
       id="text966"><tspan
         sodipodi:role="line"
         id="tspan964"
         style="font-style:normal;font-variant:normal;font-weight:normal;font-stretch:normal;font-size:31.75px;font-family:'IBM Plex Sans';-inkscape-font-specification:'IBM Plex Sans, Normal';font-variant-ligatures:normal;font-variant-caps:normal;font-variant-numeric:normal;font-variant-east-asian:normal;fill:#ffff00;stroke:#000000;stroke-width:0.264583;stroke-opacity:1"
         x="46.259811"
         y="79.74012"><tspan
   style="font-style:italic;fill:#ffff00;stroke:#000000;stroke-opacity:1"
   id="tspan1058">O</tspan>(<tspan
   style="font-style:italic;fill:#ffff00;stroke:#000000;stroke-opacity:1"
   id="tspan1022">n</tspan>)</tspan></text><text
       xml:space="preserve"
       style="font-size:22.5778px;line-height:1.25;font-family:'IBM Plex Sans Condensed';-inkscape-font-specification:'IBM Plex Sans Condensed, ';stroke-width:0.264583"
       x="20.923353"
       y="154.7495"
       id="text1062"><tspan
         sodipodi:role="line"
         id="tspan1060"
         style="font-style:normal;font-variant:normal;font-weight:normal;font-stretch:normal;font-size:31.75px;font-family:'IBM Plex Sans';-inkscape-font-specification:'IBM Plex Sans, Normal';font-variant-ligatures:normal;font-variant-caps:normal;font-variant-numeric:normal;font-variant-east-asian:normal;fill:#00ff00;stroke:#000000;stroke-width:0.264583;stroke-opacity:1"
         x="20.923353"
         y="154.7495"><tspan
   style="font-style:italic;fill:#00ff00;stroke:#000000;stroke-opacity:1"
   id="tspan1064">O</tspan>(log <tspan
   style="font-style:italic;stroke:#000000;stroke-opacity:1"
   id="tspan1158">n</tspan>)</tspan></text><text
       xml:space="preserve"
       style="font-size:31.75px;line-height:1.25;font-family:'IBM Plex Sans';-inkscape-font-specification:'IBM Plex Sans, Normal';stroke-width:0.264583"
       x="180.61784"
       y="75.628502"
       id="text1072"><tspan
         sodipodi:role="line"
         id="tspan1070"
         style="font-style:normal;font-variant:normal;font-weight:normal;font-stretch:normal;font-size:15.875px;font-family:'IBM Plex Sans';-inkscape-font-specification:'IBM Plex Sans, Normal';font-variant-ligatures:normal;font-variant-caps:normal;font-variant-numeric:normal;font-variant-east-asian:normal;stroke-width:0.264583"
         x="180.61784"
         y="75.628502">Linear</tspan></text><text
       xml:space="preserve"
       style="font-size:31.75px;line-height:1.25;font-family:'IBM Plex Sans';-inkscape-font-specification:'IBM Plex Sans, Normal';stroke-width:0.264583"
       x="160.83765"
       y="150.241"
       id="text1076"><tspan
         sodipodi:role="line"
         id="tspan1074"
         style="font-style:normal;font-variant:normal;font-weight:normal;font-stretch:normal;font-size:15.875px;font-family:'IBM Plex Sans';-inkscape-font-specification:'IBM Plex Sans, Normal';font-variant-ligatures:normal;font-variant-caps:normal;font-variant-numeric:normal;font-variant-east-asian:normal;stroke-width:0.264583"
         x="160.83765"
         y="150.241">Logarithmic</tspan></text></g></svg>
